<svg width="35" height="34" viewBox="0 0 35 34" fill="none" xmlns="http://www.w3.org/2000/svg">
<g id="Bank Rossii">
<rect id="Fill" x="0.5" width="34" height="34" fill="#7B7B7B"/>
<path id="Logo" fill-rule="evenodd" clip-rule="evenodd" d="M16.5673 7.85617C16.2954 8.10614 15.7445 8.17985 15.019 8.06328C14.2782 7.94423 13.814 7.96757 13.4603 8.14175C13.3009 8.22022 13.1623 8.38133 13.1612 8.48931C13.1607 8.53391 13.1592 8.53458 12.9847 8.56261C11.901 8.73666 11.6377 8.98422 11.9122 9.57101C11.9766 9.7085 11.9733 9.70683 12.0392 9.63446C12.1495 9.51353 12.3831 9.45216 12.7308 9.45283C13.1248 9.45364 13.3266 9.53701 13.5097 9.77457C13.5556 9.83419 13.5619 9.83694 13.6931 9.85693C14.2542 9.94218 14.7814 10.3056 15.0553 10.7959C15.303 11.2395 15.3203 12.1704 15.0928 12.8162C14.9221 13.3005 14.5087 13.8567 14.2132 13.9995C13.8731 14.164 13.3019 13.9896 12.8909 13.596C12.6747 13.389 12.6403 13.2476 12.7498 13.0165C13.224 12.0155 12.7575 10.9524 11.702 10.6286C11.3535 10.5217 10.7479 10.5649 10.1356 10.7402C8.44307 11.2247 7.45919 12.6824 7.31071 14.9251C7.30238 15.0516 7.29163 15.8622 7.28692 16.7264C7.27201 19.4508 7.24016 21.0533 7.19602 21.303C7.15336 21.5445 7.0771 21.6989 6.93971 21.8223C6.8185 21.9311 6.86184 21.9539 7.11849 21.9166C7.83738 21.812 9.02968 21.2907 9.22277 20.9966C9.24756 20.9588 9.29943 20.9356 9.46753 20.8871C10.0403 20.7218 10.3389 20.2829 10.4256 19.4785L10.4503 19.2489L10.5839 19.2298C11.2213 19.1389 11.7391 18.4499 11.8944 17.4857L11.9043 17.4248L11.9565 17.5317C12.1767 17.9825 12.7384 17.9908 13.2513 17.5508C13.3377 17.4766 13.3348 17.4754 13.3573 17.5938C13.4503 18.0831 14.0677 18.1541 14.6002 17.7366C14.7171 17.645 14.704 17.6438 14.7537 17.7497C14.7765 17.7982 14.8386 17.9126 14.8919 18.0038C14.9994 18.1882 14.9996 18.191 14.9076 18.2061C13.9588 18.3618 13.4202 19.0556 13.3668 20.1911L13.3571 20.398L13.1696 20.582C12.4768 21.2616 12.0066 21.6934 11.9595 21.6934C11.9561 21.6934 11.8777 21.6191 11.7854 21.5282C11.4071 21.156 11.1214 21.0166 10.928 21.1101C10.8582 21.1439 10.857 21.1439 10.7769 21.1162C10.4361 20.9983 10.039 21.175 10.0384 21.4448C10.0382 21.5375 10.0578 21.5502 10.1279 21.5028C10.2143 21.4442 10.3458 21.4446 10.4695 21.5038C10.5687 21.5512 10.5697 21.5618 10.4772 21.5854C10.0107 21.7044 9.83047 22.0635 10.0895 22.358C10.1489 22.4256 10.1603 22.4208 10.1738 22.3229C10.2014 22.1226 10.4468 21.9557 10.4754 22.1177C10.5109 22.3183 10.5973 22.3576 11.0416 22.3752C11.9006 22.4093 12.1262 22.5053 12.1772 22.8585C12.2173 23.1366 12.2788 23.2175 12.4682 23.2411C12.6 23.2574 12.5806 23.4358 12.4272 23.6174L12.3883 23.6633L12.4735 23.6679C12.8853 23.6899 13.3205 23.2934 13.1818 23.0226C13.168 22.9956 13.066 22.8804 12.9552 22.7666C12.3643 22.1592 12.3841 22.104 13.5042 21.2335C14.0286 20.826 14.1418 20.7774 14.3971 20.8503C14.5545 20.8952 14.5662 20.8926 14.7358 20.7758C15.0935 20.5295 15.4314 20.3967 15.9143 20.3128C16.0417 20.2907 16.0467 20.2945 15.9798 20.3633C15.9342 20.4102 15.7562 20.7465 15.7562 20.7858C15.7562 20.7934 15.7464 20.8196 15.7345 20.8441C15.7225 20.8685 15.6803 20.9679 15.6406 21.0649C15.5634 21.2533 15.4171 21.6001 15.3721 21.7011C15.3572 21.7348 15.3193 21.8245 15.288 21.9004C15.2567 21.9763 15.2186 22.0659 15.2033 22.0997C15.188 22.1334 15.15 22.2231 15.1188 22.299C15.0875 22.3749 15.0527 22.4576 15.0413 22.4829C15.0019 22.5703 14.7426 23.1833 14.7426 23.189C14.7426 23.1922 14.7262 23.2313 14.7062 23.2758C14.6861 23.3203 14.6232 23.4672 14.5664 23.602C14.5095 23.737 14.3955 24.006 14.313 24.1999C14.2305 24.3939 14.1337 24.6215 14.0978 24.7058C13.9334 25.0929 13.9645 25.3535 14.203 25.5874C14.5222 25.9004 14.9706 25.9331 15.2554 25.6642C15.3406 25.5837 15.3709 25.5818 15.3393 25.6589C15.3295 25.6828 15.3208 25.7713 15.32 25.8556C15.3137 26.5045 16.2944 26.8334 16.6803 26.3119C16.7464 26.2224 16.769 26.2231 16.7695 26.3145C16.7696 26.3392 16.7845 26.4013 16.8026 26.4524C17.04 27.1239 18.0935 27.0472 18.2168 26.3496C18.2385 26.227 18.2484 26.2175 18.288 26.2816C18.6588 26.8806 19.7913 26.455 19.6733 25.7609C19.6635 25.7034 19.6519 25.6443 19.6474 25.6295C19.6345 25.5864 19.6613 25.598 19.7372 25.6686C20.1791 26.0795 20.9935 25.7186 20.9927 25.1123C20.9925 24.9515 20.9553 24.829 20.8085 24.5065C20.7932 24.4728 20.76 24.3935 20.7348 24.3302C20.7096 24.267 20.6675 24.1685 20.6413 24.1114C20.615 24.0543 20.5936 24.0049 20.5936 24.0016C20.5936 23.996 20.4367 23.6251 20.071 22.7666C19.9795 22.5515 19.8974 22.3566 19.8886 22.3334C19.8798 22.3102 19.8593 22.2619 19.8431 22.2261C19.8268 22.1903 19.7949 22.1162 19.7721 22.0614C19.7494 22.0066 19.721 21.9393 19.7091 21.9119C19.6972 21.8845 19.6779 21.8396 19.666 21.8122C19.6541 21.7848 19.6257 21.7176 19.603 21.6628C19.5802 21.608 19.5491 21.5355 19.534 21.5018C19.519 21.4681 19.481 21.3784 19.4497 21.3025C19.4185 21.2266 19.3803 21.137 19.365 21.1032C19.3497 21.0695 19.3083 20.9698 19.2732 20.8816C19.1662 20.6136 19.0745 20.4316 19.0158 20.3715C18.9332 20.2866 18.9604 20.2855 19.319 20.3586C19.5851 20.4129 19.933 20.565 20.227 20.7559C20.44 20.894 20.4428 20.8947 20.6077 20.8485C20.8504 20.7805 20.9606 20.8263 21.432 21.191C21.5003 21.2439 21.6005 21.3212 21.6546 21.3628C22.0581 21.6726 22.327 21.9302 22.389 22.0661C22.4812 22.2682 22.4296 22.3694 22.022 22.7866C21.9248 22.8861 21.832 22.9922 21.8159 23.0222C21.6727 23.2886 22.0796 23.6711 22.5063 23.6711C22.5987 23.6711 22.6056 23.6625 22.5572 23.6082C22.4949 23.5382 22.4342 23.3874 22.4393 23.3157L22.4441 23.2495L22.5209 23.2411C22.6166 23.2307 22.6849 23.1951 22.7332 23.1307C22.7711 23.08 22.7856 23.0297 22.829 22.7972C22.8835 22.5059 23.1439 22.4071 23.9414 22.3751C24.4007 22.3566 24.525 22.2935 24.525 22.0787C24.525 22.038 24.5576 22.037 24.6401 22.075C24.7454 22.1235 24.8153 22.2292 24.8198 22.3463C24.827 22.5397 25.0076 22.2739 25.0081 22.069C25.0087 21.8206 24.8626 21.6781 24.5135 21.5867C24.429 21.5646 24.4312 21.5492 24.526 21.5013C24.6344 21.4464 24.7596 21.4461 24.8569 21.5004C24.9423 21.5481 24.955 21.5425 24.955 21.4568C24.955 21.1774 24.5646 20.9967 24.2199 21.1166C24.1375 21.1452 24.1374 21.1452 24.0684 21.1107C23.877 21.0154 23.6034 21.1461 23.2242 21.5143C23.0976 21.6373 23.0305 21.6924 23.017 21.6843C22.8915 21.6094 22.629 21.3678 21.899 20.6554L21.6443 20.4068L21.6247 20.1579C21.5327 18.9961 21.039 18.3714 20.0822 18.2065C20.001 18.1925 19.9991 18.1705 20.0694 18.0558C20.1583 17.9108 20.2557 17.7238 20.2557 17.6981C20.2557 17.6544 20.3032 17.657 20.3528 17.7033C20.8433 18.1628 21.6379 18.0703 21.6379 17.5537C21.6379 17.4751 21.6535 17.4769 21.7586 17.5676C22.27 18.0083 22.9017 17.9627 23.0566 17.4738C23.0709 17.4285 23.0949 17.4439 23.1042 17.5044C23.2509 18.4617 23.7719 19.1429 24.4251 19.2316L24.548 19.2483L24.5515 19.3172C24.597 20.2162 24.918 20.7119 25.5781 20.903C25.7013 20.9386 25.7204 20.9498 25.8138 21.0397C26.174 21.3869 27.1618 21.8091 27.8651 21.9166C28.1174 21.9551 28.1892 21.9266 28.0665 21.8365C27.7511 21.6051 27.7301 21.3393 27.7114 17.3319C27.7009 15.0958 27.6924 14.7999 27.6268 14.3579C27.5494 13.8356 27.4033 13.2767 27.2584 12.9475C27.2435 12.9138 27.2099 12.8368 27.1835 12.7764C26.6922 11.6486 25.6667 10.8497 24.4405 10.6393C24.3899 10.6306 24.2827 10.6125 24.2025 10.5992C22.6704 10.3441 21.6158 11.6507 22.2451 13.0241C22.3717 13.3005 22.2846 13.4894 21.9048 13.7615C21.3827 14.1356 20.8799 14.1586 20.5429 13.824C19.9272 13.2126 19.6466 12.3431 19.764 11.4105C19.8683 10.5825 20.4614 9.98725 21.3133 9.85566C21.4384 9.83634 21.443 9.83413 21.4852 9.77289C21.6206 9.57638 21.8573 9.4639 22.1669 9.44881C22.5157 9.43177 22.8554 9.51266 22.9541 9.63634C23.0172 9.71514 23.034 9.69804 23.1276 9.45894C23.2839 9.05994 23.1299 8.8374 22.5977 8.6932C22.5723 8.68629 22.5136 8.67033 22.4671 8.65772C22.3886 8.63639 22.0428 8.56798 21.9097 8.54739C21.8739 8.54189 21.848 8.52828 21.8429 8.51238C21.69 8.03518 21.0944 7.88662 20.0177 8.05704C19.2397 8.18025 18.6816 8.10701 18.4111 7.84638C18.3216 7.76012 18.3147 7.76703 18.3271 7.93041C18.3525 8.26764 18.5376 8.58059 18.839 8.79609C18.9551 8.87905 18.9598 8.84713 18.8037 9.03425C18.4879 9.41259 18.1588 9.95653 17.9739 10.4059C17.9434 10.48 17.9094 10.5614 17.8984 10.5867C17.8513 10.6948 17.7345 11.0417 17.6996 11.1769C17.6942 11.1979 17.6795 11.2523 17.6671 11.2976C17.6362 11.41 17.5743 11.6978 17.5529 11.8284C17.4969 12.1705 17.4883 12.1855 17.4634 11.9838C17.4481 11.86 17.4172 11.6906 17.3691 11.4682C17.1871 10.6262 16.7416 9.70622 16.1912 9.03593C16.0699 8.88831 16.045 8.84666 16.0777 8.84666C16.0855 8.84666 16.1441 8.80541 16.2077 8.7549C16.494 8.52781 16.6622 8.21184 16.6622 7.90137C16.6622 7.77012 16.6613 7.76971 16.5673 7.85617Z" fill="#FBFBFB"/>
</g>
</svg>
