<svg width="161" height="88" viewBox="0 0 161 88" fill="none" xmlns="http://www.w3.org/2000/svg">
<g id="Illustration">
<path id="Vector" d="M95.3954 52.2143L102.393 59.4511C101.853 64.174 108.259 65.1897 108.388 68.7445C108.439 70.0141 105.481 73.5182 104.94 74.8386C104.374 76.2606 103.988 77.8857 103.5 79.3838C99.6919 78.3681 95.6012 81.212 94.5721 85.4779H108.542C110.523 81.4913 114.331 76.3875 116.904 72.0709C117.598 72.1471 118.293 72.4772 118.936 72.8073C119.065 69.8872 117.933 61.1777 117.933 61.1777L119.039 39.8231L92.7197 41.9052L95.3697 52.1636L95.3954 52.2143Z" fill="#EEEEEE"/>
<path id="Vector_2" d="M108.568 86.7729H94.5981C94.2121 86.7729 93.8262 86.5952 93.5947 86.2905C93.3631 85.9858 93.2602 85.5795 93.3631 85.224C93.9806 82.634 95.6014 80.3995 97.8398 79.0791C99.3577 78.1904 101.004 77.8095 102.651 77.9619C102.702 77.7588 102.779 77.5302 102.831 77.3017C103.114 76.286 103.423 75.2957 103.783 74.3816C104.04 73.7468 104.632 72.8835 105.301 71.8678C105.918 70.9537 107.05 69.2778 107.127 68.7446C107.076 67.7543 106.021 66.891 104.812 65.9007C103.114 64.5295 101.056 62.8283 101.107 59.9336L94.4952 53.0777C94.3408 52.9254 94.2379 52.7223 94.1864 52.5191L91.5365 42.2608C91.4336 41.9053 91.5365 41.5244 91.7423 41.2197C91.9481 40.915 92.3083 40.7118 92.6942 40.6865L119.014 38.6043C119.374 38.6043 119.76 38.7059 120.017 38.9598C120.274 39.2137 120.429 39.5692 120.403 39.9247L119.297 61.2794C119.322 61.4063 120.429 69.9126 120.3 72.9089C120.3 73.3405 120.043 73.7468 119.657 73.95C119.271 74.1785 118.808 74.1531 118.396 73.95C118.139 73.823 117.856 73.6706 117.573 73.5437C116.672 74.991 115.669 76.5145 114.666 78.0381C112.839 80.8058 110.935 83.6751 109.752 86.0365C109.546 86.4682 109.083 86.7475 108.594 86.7475L108.568 86.7729ZM96.399 84.2337H107.771C109.006 81.8977 110.781 79.2569 112.479 76.6923C113.662 74.9149 114.846 73.1374 115.823 71.4615C116.081 71.0299 116.544 70.776 117.058 70.8521C117.264 70.8521 117.444 70.9029 117.65 70.9537C117.47 67.3734 116.698 61.4571 116.698 61.3809L117.702 41.2451L94.3408 43.0987L96.5276 51.5796L103.294 58.5878C103.551 58.8671 103.68 59.2226 103.629 59.6035C103.423 61.4063 104.529 62.4474 106.381 63.9455C107.874 65.1643 109.546 66.5101 109.649 68.6938C109.7 69.8111 108.826 71.1568 107.385 73.2644C106.87 74.0261 106.278 74.9149 106.124 75.2957C105.79 76.1591 105.507 77.0732 105.249 77.9873C105.069 78.5967 104.889 79.1807 104.709 79.7647C104.503 80.3995 103.809 80.7804 103.14 80.6027C101.828 80.2472 100.387 80.4757 99.1004 81.2375C97.9427 81.923 96.9907 82.9641 96.3733 84.2083L96.399 84.2337Z" fill="#C8C8C8"/>
<path id="Vector_3" d="M63.0287 67.6272C63.4146 67.1702 64.6238 75.1179 67.6597 77.1746C70.0266 78.7743 72.2649 78.5712 74.4261 79.2568C78.9799 80.7041 80.4206 82.3292 84.4084 80.1963C86.2094 79.0536 93.5161 75.6257 90.8661 73.9244C91.1234 68.6937 84.4599 72.6041 82.5046 74.0768C78.4911 73.442 78.208 71.9693 76.7158 71.9185C74.5033 71.8423 84.5113 64.6056 81.0381 54.4996C78.3367 49.1419 61.5879 66.51 62.9772 67.6526L63.0287 67.6272Z" fill="#EEEEEE"/>
<path id="Vector_4" d="M80.9352 82.4817C79.4687 82.4817 78.1566 81.9738 76.6386 81.3898C75.8925 81.1105 75.0435 80.7804 74.0401 80.4503C73.3455 80.2218 72.6766 80.1202 71.9562 79.9933C70.4382 79.714 68.7145 79.4092 66.9135 78.2158C64.4694 76.5653 63.183 72.2233 62.4369 69.6333C62.3083 69.1763 62.2054 68.7954 62.1025 68.5415C61.8452 68.3129 61.4078 67.7289 61.7165 66.7386C62.6427 63.9201 73.4484 52.5953 78.9541 52.189C80.3949 52.0875 81.5784 52.6969 82.1958 53.8903C84.8458 61.5587 80.575 67.6274 78.5168 70.5221C78.4138 70.6744 78.2852 70.8268 78.1823 71.0045C78.4396 71.1315 78.6969 71.2838 78.9284 71.4362C79.5973 71.8678 80.4206 72.3757 82.1701 72.7058C83.6109 71.7155 87.9074 69.0239 90.4802 70.3697C91.2005 70.7506 92.0496 71.5631 92.1267 73.3152C92.6413 73.8738 92.7185 74.4832 92.6927 74.8387C92.6413 76.8193 89.9142 78.5205 86.3637 80.5011C85.8234 80.8058 85.3603 81.0597 85.0773 81.2375C83.405 82.1262 82.0929 82.4563 80.8837 82.4563L80.9352 82.4817ZM64.3408 67.1957C64.5209 67.602 64.701 68.1606 64.9325 68.9224C65.4985 70.8775 66.7077 74.9656 68.4058 76.1083C69.7436 76.997 71.0557 77.2509 72.445 77.5049C73.2683 77.6572 74.0659 77.8096 74.8377 78.0381C75.8925 78.3682 76.793 78.7237 77.5648 79.0284C80.1633 80.0441 81.2439 80.4503 83.8167 79.0792C84.0482 78.9268 84.5628 78.6475 85.1545 78.3174C86.2608 77.708 89.4768 75.8798 90.0942 74.9149C89.7855 74.6609 89.5797 74.2547 89.6054 73.8484C89.6312 73.1882 89.5282 72.7312 89.3224 72.6296C88.3962 72.1725 85.3346 73.5691 83.3021 75.0926C83.0191 75.2957 82.6847 75.3973 82.3245 75.3465C79.6745 74.9403 78.4138 74.1277 77.5906 73.5945C77.1017 73.2898 76.9474 73.1882 76.7158 73.1882C75.8153 73.1628 75.4294 72.6042 75.3008 72.3503C74.812 71.4108 75.4037 70.5982 76.4585 69.1001C78.4139 66.3324 82.0415 61.2032 79.8803 54.8806C79.8803 54.8806 79.7517 54.6774 79.16 54.7282C75.0435 55.1599 65.7043 64.6819 64.3922 67.1957H64.3408Z" fill="#C8C8C8"/>
<path id="Vector_5" d="M32.3867 63.8947C35.2682 63.8947 33.0814 77.454 31.7178 77.0223C31.0489 75.5496 16.7442 76.6668 15.0977 71.2583C16.2297 71.0298 22.9961 66.0784 22.9961 66.0784L32.3867 63.8947Z" fill="#EEEEEE"/>
<path id="Vector_6" d="M31.7695 78.3168C31.6151 78.3168 31.4608 78.3168 31.3064 78.2406C31.0749 78.1644 30.8948 78.0374 30.7404 77.8851C30.2001 77.682 28.5278 77.5042 27.1642 77.3519C22.0959 76.7932 15.1751 76.0315 13.863 71.6641C13.7601 71.334 13.8115 70.9531 13.9916 70.6484C14.1717 70.3437 14.4805 70.1151 14.8407 70.0644C15.5096 69.8358 19.2144 67.322 22.2245 65.1129C22.3532 65.0114 22.5332 64.9352 22.6876 64.9098L32.0782 62.7261C32.0782 62.7261 32.2841 62.7007 32.387 62.7007C32.9273 62.7007 33.9306 62.9038 34.5224 64.2496C35.8345 67.1443 34.5738 76.0823 33.0044 77.8089C32.67 78.1898 32.2326 78.3675 31.7952 78.3675L31.7695 78.3168ZM16.8474 71.8164C18.6741 73.8224 24.0512 74.4318 27.4472 74.8127C29.2482 75.0158 30.5089 75.1428 31.3836 75.4221C32.2583 73.1368 32.9273 66.7634 32.1812 65.2653L23.5109 67.2966C21.2211 68.9725 18.5454 70.8515 16.8217 71.8418L16.8474 71.8164Z" fill="#C8C8C8"/>
<path id="Vector_7" d="M159.147 16.9196C159.147 19.1287 158.401 19.0017 156.96 18.3669C154.542 17.2751 152.793 14.7359 150.245 13.8471C149.654 15.8023 150.76 16.945 148.084 16.0055C146.026 15.3199 144.071 13.7964 142.064 12.8822C140.623 10.3431 137.227 8.81953 133.137 10.5208C134.552 11.638 134.68 12.0951 134.86 13.771C131.67 13.0346 130.538 13.6186 129.097 13.6694C131.336 21.3378 134.011 26.0099 132.159 34.4908C131.644 36.8777 129.38 38.4774 129.432 40.8642C129.432 42.8956 131.516 47.6693 132.571 49.7514C131.413 49.5483 130.049 50.437 128.969 50.0053C132.699 56.6834 139.517 57.4452 140.443 64.9612C140.057 64.9612 139.466 65.139 139.028 65.1136C137.793 68.3384 141.524 84.9701 135.915 85.478H122.974C123.386 81.009 126.396 79.5616 130.564 79.714C130.77 74.1531 130.255 68.7192 125.29 65.7738C120.401 63.3361 113.455 60.9493 111.062 55.2361C107.82 55.4138 105.016 44.9016 105.016 44.9016C101.672 48.9135 100.488 50.0307 95.4454 52.1637C92.1265 53.5856 87.83 54.3474 84.2538 56.0232C84.6397 56.3533 85.2315 57.4452 85.7203 57.7499C81.501 58.9941 80.7291 59.6289 76.3811 59.4004C76.3811 59.4004 67.891 64.5803 58.6547 69.5826C49.4442 74.5594 53.1233 85.8081 49.7787 85.8335C46.6656 85.8335 42.6778 79.4855 39.7191 79.1807C36.7347 78.8253 34.1105 82.3547 34.1105 82.3547C34.3677 79.0284 29.0164 76.8701 29.4023 69.608C26.495 72.1218 19.1369 63.8948 18.0049 60.5684C20.6034 60.2129 23.2791 59.4004 25.8776 58.8672C29.7625 58.1308 33.3386 55.1853 37.275 54.9822C39.2303 48.7104 37.5322 46.6028 43.4239 48.9389C43.4239 48.9389 43.4239 47.4154 45.868 44.1906C47.3088 42.2862 46.9486 37.1062 46.9486 37.1062C48.6209 37.5379 48.9811 39.5438 50.0102 38.0711C51.2451 36.2683 53.715 31.4184 55.2587 29.9711C58.9635 26.4416 66.5017 16.7926 72.1875 16.7672C71.8273 17.2497 72.3419 20.0428 72.0331 20.3983C75.6865 16.5387 81.0379 12.1967 85.9776 9.80982C85.5145 10.5716 85.2829 11.7142 84.9485 12.3744C88.2416 9.40355 93.9532 6.10259 98.4813 6.0772C98.4813 6.25494 98.5585 6.99131 98.6614 7.16905C104.656 2.54771 112.22 3.76652 119.269 3.538C119.269 3.538 119.063 5.18848 118.42 5.34083C119.346 5.67092 120.607 6.02641 122.022 6.45808C132.596 1.88752 141.395 0.186254 149.705 4.7822C153.204 6.712 155.237 9.68286 157.372 12.9076C158.17 14.1265 159.173 15.4214 159.147 16.9196Z" fill="#F4F4F4"/>
<path id="Vector_8" d="M49.7553 87.1281C47.6198 87.1281 45.5616 85.2237 43.5806 83.3701C42.1656 82.0497 40.5704 80.577 39.5928 80.4754C37.7404 80.2723 35.7079 82.3798 35.1676 83.1162C34.8332 83.5732 34.2157 83.751 33.6754 83.5478C33.1351 83.3447 32.8007 82.8368 32.8264 82.2528C32.9036 81.3387 32.2089 80.3738 31.3342 79.155C30.0735 77.3776 28.4012 75.0161 28.1182 71.3343C27.758 71.3343 27.3464 71.2835 26.8833 71.1819C22.9984 70.1408 17.8271 64.0976 16.7723 60.9743C16.6436 60.6189 16.6951 60.2126 16.9009 59.9079C17.1067 59.6032 17.4412 59.3746 17.8271 59.3239C19.3708 59.1207 20.9916 58.7144 22.5868 58.3336C23.6159 58.0796 24.6192 57.8511 25.6226 57.648C27.2177 57.3433 28.7614 56.6323 30.3823 55.8705C32.2604 55.0072 34.19 54.1185 36.2739 53.8138C36.5826 52.6712 36.7885 51.6555 36.9428 50.8429C37.303 49.0147 37.5603 47.7197 38.7695 47.0595C39.7214 46.5517 40.8792 46.704 42.5515 47.2627C42.9117 46.3486 43.5806 45.079 44.8413 43.4285C45.6388 42.3874 45.7932 39.1372 45.6645 37.182C45.6388 36.7758 45.8189 36.3695 46.1276 36.1156C46.4364 35.8617 46.8737 35.7601 47.2597 35.8617C48.1344 36.0902 48.7519 36.5726 49.1892 36.9789C49.6009 36.3441 50.064 35.557 50.5528 34.719C51.8135 32.5607 53.2542 30.1231 54.3862 29.0566C55.1324 28.3456 56.0586 27.3553 57.1134 26.2381C61.3327 21.7183 67.1472 15.5481 72.2156 15.5227C72.7044 15.5227 73.1418 15.7766 73.3733 16.2083C73.5534 16.5637 73.5534 16.97 73.3733 17.3255C76.6665 14.2277 81.0659 10.8252 85.4396 8.71762C85.9542 8.4637 86.5717 8.59066 86.9576 8.99693C87.009 9.04772 87.0605 9.0985 87.0862 9.14928C90.508 6.81322 94.8303 4.85804 98.5093 4.83264C98.8695 4.75647 99.1525 4.9596 99.3841 5.16274C104.221 2.21727 109.701 2.26805 115.078 2.29345C116.467 2.29345 117.882 2.29345 119.246 2.29345C119.709 2.26805 119.992 2.42041 120.224 2.69972C120.481 2.97903 120.609 3.33452 120.558 3.7154C120.532 3.99471 120.481 4.3248 120.378 4.6549C120.867 4.80725 121.407 4.9596 121.973 5.13735C130.669 1.40473 140.806 -1.59153 150.351 3.7154C154.21 5.87372 156.474 9.25085 158.481 12.2471L158.764 12.6788C159.561 13.8976 160.487 15.2688 160.462 16.97C160.462 17.9603 160.333 19.1537 159.381 19.7631C158.378 20.3979 157.22 19.8901 156.448 19.5346C155.162 18.9506 154.107 18.0619 153.078 17.1985C152.486 16.6907 151.894 16.2083 151.303 15.802C151.251 16.3352 151.097 16.9192 150.505 17.3001C149.708 17.8333 148.704 17.554 147.675 17.1985C146.363 16.7669 145.154 16.0559 143.97 15.3449C143.173 14.8625 142.349 14.4054 141.526 14.0245C141.269 13.923 141.063 13.7198 140.934 13.4913C140.034 11.917 138.104 10.749 135.506 11.1299C135.917 11.8154 136.02 12.5264 136.149 13.6183C136.2 14.0245 136.02 14.4308 135.712 14.7101C135.403 14.9894 134.966 15.091 134.554 14.9894C132.702 14.5578 131.672 14.6086 130.772 14.7355C131.081 15.7004 131.364 16.5891 131.647 17.4779C133.422 22.9117 134.966 27.5839 133.422 34.7444C133.139 36.014 132.47 37.0551 131.904 37.9946C131.261 39.0103 130.72 39.8736 130.746 40.8131C130.746 42.4636 132.547 46.7802 133.756 49.1925C133.962 49.6241 133.911 50.132 133.628 50.5128C133.345 50.8937 132.856 51.0715 132.367 50.9953C132.135 50.9445 131.698 51.0461 131.286 51.1476C132.547 52.7981 134.039 54.0423 135.506 55.2611C138.284 57.5718 141.14 59.9587 141.758 64.8085C141.809 65.164 141.68 65.5449 141.449 65.7988C141.14 66.1543 140.703 66.1797 140.137 66.2813C140.008 67.5001 140.137 69.6838 140.24 71.6644C140.6 78.1647 141.037 86.2648 136.072 86.7472H123.002C122.642 86.7472 122.308 86.5948 122.05 86.3409C121.819 86.087 121.69 85.7315 121.716 85.376C121.999 82.3036 123.594 78.7233 129.331 78.4694C129.408 73.1625 128.508 69.1759 124.649 66.8907C123.98 66.5606 123.157 66.1797 122.333 65.7988C117.985 63.7675 112.582 61.2536 110.215 56.4292C107.54 55.642 105.61 51.0207 104.478 47.5674C101.983 50.3605 100.336 51.5285 95.988 53.3821C94.4186 54.0677 92.6691 54.5756 90.8425 55.1088C89.3245 55.5658 87.7809 56.0229 86.3401 56.5815C86.3916 56.6323 86.443 56.6831 86.4688 56.7085C86.9061 56.9624 87.1377 57.4448 87.0605 57.9527C86.9833 58.4605 86.6231 58.8414 86.1343 58.9938C85.3367 59.2223 84.6678 59.4508 84.0761 59.6286C81.529 60.4411 80.2169 60.8474 76.7694 60.695C75.0971 61.7107 67.4559 66.3067 59.326 70.6995C54.2319 73.4672 53.5115 78.3932 52.9712 81.9989C52.5853 84.6143 52.2251 87.1027 49.8324 87.1027H49.8067L49.7553 87.1281ZM39.2841 77.9108C39.4642 77.9108 39.67 77.9108 39.8501 77.9362C41.6767 78.1139 43.452 79.7644 45.3301 81.5165C46.7966 82.8876 48.649 84.5889 49.7553 84.5889C49.9611 84.335 50.1926 82.7861 50.3727 81.6434C50.9387 77.733 51.7877 71.8421 58.0396 68.465C67.1472 63.5389 75.6374 58.359 75.7146 58.3082C75.9461 58.1812 76.2034 58.105 76.4607 58.1304C79.7538 58.2828 80.7829 57.9781 83.2528 57.1909C83.33 57.1655 83.4329 57.1401 83.5101 57.1148C83.4843 57.064 83.4329 57.0386 83.4072 57.0132C83.0984 56.7339 82.944 56.2768 82.9955 55.8705C83.0727 55.4643 83.3042 55.0834 83.6901 54.9057C85.7226 53.9661 87.9095 53.306 90.0449 52.6712C91.7944 52.1379 93.4667 51.6555 94.9074 51.0461C99.6413 49.0401 100.696 48.0752 103.989 44.1394C104.298 43.784 104.787 43.6062 105.25 43.7078C105.713 43.8093 106.099 44.1648 106.228 44.6219C107.54 49.4972 109.804 53.9915 110.962 54.0169C111.579 53.9661 112.016 54.2962 112.222 54.8041C114.049 59.1461 119.014 61.4568 123.362 63.5135C124.211 63.9198 125.06 64.3007 125.832 64.6816C131.467 68.0079 132.033 73.8989 131.827 79.8152C131.827 80.1453 131.672 80.4754 131.415 80.7039C131.158 80.9324 130.875 81.034 130.489 81.034C127.119 80.8817 125.163 81.8973 124.494 84.2588H135.917C138.31 84.0303 137.873 76.4127 137.641 71.8675C137.435 68.2618 137.358 66.002 137.847 64.7323C138.027 64.2753 138.465 63.9452 138.953 63.9198C138.182 60.8982 136.226 59.2731 133.834 57.2671C131.827 55.5912 129.537 53.6868 127.865 50.6906C127.607 50.2081 127.659 49.6241 128.019 49.2178C128.379 48.8116 128.971 48.6846 129.46 48.8877C129.691 48.9893 130.206 48.8624 130.643 48.7608C129.691 46.6533 128.173 42.9714 128.148 40.9401C128.096 39.2388 128.945 37.893 129.691 36.725C130.206 35.9124 130.695 35.1253 130.875 34.2874C132.29 27.8124 130.901 23.6481 129.177 18.3412C128.739 16.9954 128.276 15.5988 127.839 14.0753C127.736 13.6944 127.813 13.2882 128.045 12.9835C128.276 12.6788 128.637 12.4756 129.048 12.4502C129.383 12.4502 129.691 12.3995 130.026 12.3487C130.823 12.2471 131.724 12.0948 133.087 12.2471C132.907 12.044 132.676 11.8408 132.316 11.5615C131.955 11.2822 131.775 10.8252 131.852 10.3935C131.904 9.96183 132.213 9.58095 132.624 9.4032C137.332 7.44802 141.192 9.30163 142.941 11.9424C143.713 12.3233 144.485 12.7549 145.257 13.212C146.363 13.8722 147.418 14.4816 148.473 14.8371C148.576 14.8625 148.653 14.8879 148.73 14.9133C148.756 14.507 148.807 14.0499 148.987 13.4913C149.09 13.1612 149.322 12.8819 149.63 12.7296C149.939 12.5772 150.299 12.5518 150.634 12.6534C152.229 13.212 153.49 14.2531 154.699 15.2688C155.625 16.0559 156.525 16.7923 157.477 17.2239C157.606 17.2747 157.735 17.3255 157.838 17.3763C157.838 17.2493 157.838 17.1224 157.838 16.9446C157.838 16.0051 157.22 15.0656 156.551 14.0753L156.268 13.6437C154.364 10.7744 152.357 7.80351 149.039 5.94989C142.015 2.03953 134.322 2.54737 122.513 7.67655C122.23 7.80351 121.922 7.80351 121.613 7.72733L121.201 7.60037C119.915 7.21949 118.783 6.8894 117.934 6.58469C117.394 6.40695 117.059 5.87372 117.085 5.31509C117.085 5.16274 117.136 5.03578 117.188 4.88343C116.467 4.88343 115.721 4.88343 114.975 4.88343C109.264 4.83264 103.861 4.78186 99.4098 8.23517C99.1011 8.4637 98.7409 8.53988 98.355 8.48909C97.9948 8.41292 97.6603 8.18439 97.4802 7.85429C97.4288 7.75272 97.3773 7.62576 97.3259 7.4988C93.4924 7.98125 88.7585 10.6982 85.7741 13.3897C85.311 13.796 84.6421 13.8468 84.1532 13.4659C83.8702 13.2628 83.6902 12.9327 83.6387 12.6026C79.4708 15.1418 75.5087 18.6205 72.936 21.3374C72.4471 21.8453 71.6753 21.8707 71.135 21.4136C70.7234 21.0581 70.5947 20.4741 70.8005 19.9917C70.8005 19.7631 70.8005 19.2299 70.7748 18.8744C70.7748 18.6967 70.7748 18.4935 70.7491 18.3412C66.9671 19.4584 62.2075 24.5368 58.9401 28.0155C57.8595 29.1582 56.9076 30.1992 56.11 30.961C55.2353 31.7735 53.7945 34.262 52.7139 36.0648C52.045 37.182 51.4533 38.2231 51.0159 38.8579C50.8615 39.1118 50.347 39.8228 49.4465 39.9244C48.9577 39.9752 48.546 39.8228 48.2116 39.6197C48.1344 41.4225 47.8514 43.7332 46.848 45.0282C44.7898 47.7451 44.6612 49.0655 44.6612 49.0655C44.6354 49.4718 44.4039 49.8526 44.0437 50.0558C43.6835 50.2589 43.2719 50.3351 42.8859 50.1827C40.6734 49.294 40.0816 49.3194 39.9273 49.3702C39.7729 49.5479 39.5671 50.5636 39.4127 51.4016C39.2069 52.468 38.9239 53.8138 38.435 55.4389C38.2807 55.9467 37.8176 56.3022 37.2773 56.3276C35.322 56.4292 33.4181 57.2925 31.4114 58.232C29.7133 59.0192 27.9381 59.8317 26.06 60.1872C25.1081 60.3903 24.1304 60.6188 23.127 60.8474C22.0465 61.1013 20.9402 61.3806 19.8339 61.5837C21.429 64.2499 25.0823 68.1349 27.5008 68.7697C28.1954 68.9474 28.4012 68.7697 28.5041 68.6935C28.89 68.3634 29.4561 68.2872 29.9192 68.5158C30.3823 68.7443 30.6653 69.2267 30.6395 69.7346C30.4337 73.5942 32.0031 75.8287 33.3924 77.7838C33.8812 78.4948 34.3701 79.1804 34.7302 79.8914C35.8623 78.9519 37.4317 77.987 39.2326 77.987L39.2841 77.9108Z" fill="#C8C8C8"/>
<path id="Vector_9" d="M104.991 46.196C104.477 46.196 104.014 45.8913 103.808 45.4088C103.113 43.6822 102.393 41.5238 102.316 38.3498C98.6879 38.0959 96.7583 36.3439 94.8802 34.6426C93.671 33.5508 92.539 32.5351 90.8924 31.7987C90.2492 31.494 89.9662 30.7576 90.2492 30.1228C90.558 29.488 91.3041 29.2087 91.9473 29.488C93.954 30.4021 95.3433 31.6717 96.604 32.789C98.5593 34.5664 100.154 35.9884 103.576 35.8614C103.911 35.8614 104.271 35.9884 104.528 36.2423C104.785 36.4962 104.914 36.8263 104.914 37.1818C104.811 40.5843 105.532 42.7934 106.226 44.4947C106.483 45.1549 106.175 45.8913 105.506 46.1452C105.351 46.196 105.197 46.2467 105.017 46.2467L104.991 46.196Z" fill="#C8C8C8"/>
<path id="Vector_10" d="M50.4488 87.1277C49.4711 87.1277 48.5449 86.9753 47.7216 86.6199C46.0493 85.9089 44.7115 84.5377 43.4508 83.2427C42.0358 81.77 40.6722 80.3988 39.2572 80.3988C39.2572 80.3988 39.2315 80.3988 39.2057 80.3988C38.048 80.4242 36.6587 81.3637 35.0636 83.1665C34.8063 83.4459 34.4204 83.6236 34.0602 83.5982C33.6743 83.5982 33.3141 83.4205 33.0825 83.1158C31.1787 80.7797 29.5836 81.3637 26.7278 82.6587C25.2356 83.3443 23.6919 84.0299 22.0453 84.0299C21.8395 84.0299 21.6337 83.9791 21.4536 83.9029C19.1896 82.7603 15.8707 82.2017 13.0149 85.9597C12.7833 86.2898 12.3974 86.4675 11.9858 86.4675H2.20924C1.48886 86.4675 0.922852 85.9089 0.922852 85.1979C0.922852 84.4869 1.48886 83.9283 2.20924 83.9283H11.3683C14.2498 80.5258 18.2891 79.6371 22.3026 81.4907C23.3317 81.4145 24.4637 80.9067 25.6472 80.348C27.9884 79.2816 31.1272 77.8596 34.0859 80.4496C35.8354 78.7229 37.5077 77.885 39.1286 77.8342C41.6756 77.8342 43.528 79.6371 45.3032 81.4653C46.4095 82.6079 47.5415 83.776 48.7507 84.2838C50.3973 84.9948 53.2531 84.2838 56.0317 83.5474C60.1996 82.481 64.9592 81.2621 67.3519 84.7409C67.7635 85.3249 67.6092 86.112 67.0174 86.4929C66.4257 86.8992 65.6281 86.7468 65.2165 86.1628C63.9301 84.3092 60.9971 84.8932 56.6492 86.0104C54.5137 86.5437 52.3526 87.1023 50.423 87.1023L50.4488 87.1277Z" fill="#C8C8C8"/>
<path id="Vector_11" d="M43.4014 48.9133C43.2213 46.7042 45.8456 44.165 45.8456 44.165C45.8456 44.165 60.639 52.519 61.0249 62.2187L58.7352 66.3576C53.3066 54.8297 43.4272 48.9387 43.4272 48.9387L43.4014 48.9133Z" fill="#EEEEEE"/>
<path id="Vector_12" d="M58.7337 67.6274H58.6823C58.1935 67.6274 57.7561 67.3227 57.5503 66.8911C52.3533 55.871 42.834 50.0816 42.7311 50.0054C42.3709 49.8023 42.1393 49.4214 42.1136 49.0151C41.9078 46.2982 44.6349 43.5558 44.9437 43.2511C45.3553 42.8449 45.9728 42.7687 46.4873 43.048C47.1048 43.4035 61.8983 51.8844 62.3099 62.1428C62.3099 62.3713 62.2584 62.5998 62.1555 62.803L59.8658 66.9419C59.6342 67.3481 59.1968 67.6021 58.7337 67.6021V67.6274ZM44.7378 48.2534C46.9247 49.7007 53.9484 54.8299 58.7852 63.6155L59.7114 61.9143C59.1454 54.4744 49.1373 47.6947 46.1014 45.7903C45.5097 46.5267 44.9179 47.4408 44.7378 48.2534Z" fill="#C8C8C8"/>
<path id="Vector_13" d="M37.8934 76.6163C37.2245 76.6163 36.6585 76.1085 36.6071 75.4483C36.5556 74.7373 37.0702 74.1279 37.7905 74.0771L39.5658 73.9248C40.3119 73.874 40.9036 74.3818 40.9551 75.0928C41.0065 75.8038 40.492 76.4132 39.7716 76.464L37.9964 76.6163C37.9964 76.6163 37.9192 76.6163 37.8934 76.6163Z" fill="#C8C8C8"/>
<path id="Vector_14" d="M62.4902 55.7948C59.7888 60.8224 58.631 66.0786 53.2282 70.1667C49.5234 72.9598 48.9317 78.1651 48.7259 82.5834C48.5715 85.4527 48.2628 85.5034 50.5011 85.8843C50.5011 85.8843 52.4306 85.8843 56.1869 84.894C57.5505 82.0247 56.9073 77.8858 59.2485 76.0322C60.5092 75.0165 63.3135 73.8993 64.7542 73.0868C66.0921 72.4012 66.7095 70.9284 67.9702 70.1413C71.6493 67.9322 75.0453 68.0591 76.2545 62.8792C76.7176 60.8224 77.8754 55.7948 76.5633 53.3064" fill="#F4F4F4"/>
<path id="Vector_15" d="M50.475 87.1538C47.542 86.646 47.2075 85.9096 47.3619 83.4212L47.4134 82.5071C47.6706 77.3271 48.4682 72.1218 52.4303 69.1255C56.2123 66.2816 57.7816 62.8029 59.454 59.0957C60.0457 57.8007 60.6374 56.4803 61.3321 55.1599C61.6665 54.5505 62.4384 54.2966 63.0816 54.6267C63.699 54.9568 63.9563 55.7185 63.6218 56.3533C62.9529 57.5976 62.3869 58.8672 61.8209 60.1368C60.0971 63.9455 58.2962 67.9067 53.9997 71.1315C50.8609 73.4929 50.2177 78.0381 49.9861 82.6087L49.9347 83.5736C49.9347 83.8783 49.8832 84.2083 49.8832 84.4369C50.1148 84.4877 50.475 84.5638 50.6808 84.5892C50.6808 84.5892 52.2502 84.5131 55.2089 83.7767C55.5176 82.9134 55.6977 81.8977 55.8778 80.8312C56.238 78.6475 56.6239 76.413 58.3991 74.9911C59.351 74.2293 60.9462 73.4675 62.3612 72.782C63.0044 72.4773 63.6218 72.1725 64.1107 71.9186C64.6252 71.6393 65.0111 71.2077 65.4742 70.6744C65.9631 70.1158 66.5034 69.481 67.2752 68.9986C68.3043 68.3891 69.3077 67.9321 70.2082 67.5258C72.6266 66.4594 74.2474 65.723 74.9935 62.5236C75.3794 60.8985 76.5114 55.8963 75.4052 53.8395C75.0707 53.2301 75.3022 52.443 75.9454 52.1129C76.5886 51.7828 77.3605 52.0113 77.6949 52.6461C79.2386 55.5408 78.0294 60.8223 77.5148 63.0822C76.46 67.5258 73.8358 68.6938 71.2887 69.8365C70.4397 70.2174 69.5392 70.6236 68.6388 71.1569C68.2271 71.4108 67.8412 71.8425 67.4553 72.2995C66.915 72.9343 66.2975 73.6453 65.3713 74.1277C64.9082 74.3817 64.2393 74.7117 63.5189 75.0418C62.3097 75.6259 60.7918 76.3368 60.0714 76.9208C59.0423 77.7334 58.7593 79.4347 58.4506 81.2121C58.219 82.6087 57.9617 84.056 57.3443 85.351C57.1899 85.6811 56.8812 85.935 56.521 86.0366C52.6361 87.0522 50.6036 87.0776 50.5007 87.0776L50.475 87.1538Z" fill="#C8C8C8"/>
</g>
</svg>
