<svg width="117" height="22" viewBox="0 0 117 22" fill="none" xmlns="http://www.w3.org/2000/svg">
<path id="Logo" fill-rule="evenodd" clip-rule="evenodd" d="M108.476 7.18862C108.314 6.15562 107.568 5.57562 106.615 5.23362C104.979 4.64562 103.286 4.61362 101.575 4.75262C99.9942 4.88062 98.4652 5.19462 96.9912 5.95462C96.7182 4.47262 96.4552 3.05162 96.1892 1.61462C97.4862 0.982624 98.7882 0.630624 100.126 0.393624C102.988 -0.111376 105.856 -0.190376 108.692 0.512624C111.683 1.25462 113.783 2.94862 114.363 6.06462C114.506 6.83462 114.5 7.99962 114.5 7.99962V14.9996C114.5 15.3036 114.538 15.9536 114.557 16.2566C114.663 17.8746 114.811 18.0326 116.5 18.2776V21.6086C114.833 22.0206 113.121 22.2376 111.426 21.4556C110.473 21.0166 110.034 20.2036 109.825 19.2436C109.798 19.1177 109.785 18.9887 109.769 18.8338L109.769 18.8335L109.769 18.8306C109.761 18.7503 109.752 18.663 109.74 18.5656C107.694 21.4446 104.766 22.1516 101.548 21.9746C97.9422 21.7766 95.1742 19.4066 94.6642 16.6106C93.8352 12.0606 96.1802 8.66162 100.86 7.97562C103.819 7.54162 104.667 7.72562 108.492 8.99962C108.492 8.807 108.5 8.61486 108.507 8.42379C108.523 8.00485 108.539 7.59108 108.476 7.18862ZM108.375 12.9746C107.393 12.3136 106.277 11.9666 105.11 11.8216C103.897 11.6706 102.7 11.7496 101.671 12.5276C100.727 13.2416 100.37 14.3756 100.716 15.5446C100.981 16.4436 101.917 17.1476 103.02 17.2496C104.083 17.3496 105.114 17.1916 106.096 16.7826C107.858 16.0476 108.548 14.8876 108.375 12.9746ZM34.1011 21.9996C31.0411 22.0176 28.2901 21.1466 26.0071 19.1736C23.4751 16.9856 22.4751 14.1376 22.5001 10.9096C22.5221 8.23163 23.2581 5.79563 25.1031 3.73763C26.7581 1.89263 28.8641 0.794628 31.3221 0.295628C34.4091 -0.331372 37.3801 0.0206283 40.1141 1.52863C43.5621 3.43163 45.2651 6.41263 45.4751 10.2076C45.6601 13.5456 44.8341 16.5526 42.2751 18.9516C40.0041 21.0806 37.2191 21.9676 34.1011 21.9996ZM34.1751 5.39663C31.5831 5.45863 29.7641 6.80563 29.0691 9.02363C28.6421 10.3906 28.6691 11.7466 29.0951 13.1136C29.7141 15.0986 31.0851 16.3176 33.1731 16.6356C35.2881 16.9566 37.1051 16.2776 38.2611 14.4836C39.5761 12.4406 39.6011 10.2586 38.5521 8.09763C37.6541 6.24663 36.0541 5.41863 34.1751 5.39663ZM77.5 13.0001H80.5L80.99 13.1101L81.6811 14.338L81.6919 14.3573C83.1343 16.9203 84.5759 19.4817 85.993 22.0001H92.5C92.4318 21.8332 92.3734 21.6757 92.3181 21.5266C92.2081 21.2299 92.1104 20.9664 91.972 20.7281C90.8588 18.8125 89.738 16.9023 88.6173 14.9922L88.6098 14.9793L88.6046 14.9705C87.992 13.9263 87.3794 12.8822 86.768 11.8371C86.6617 11.6575 86.5663 11.4708 86.4632 11.2693L86.463 11.2688C86.4158 11.1766 86.3671 11.0813 86.315 10.9821C90.54 8.50112 91.418 4.52012 91.296 0.000122078H85.5C85.5 1.77343 85.2075 2.8164 84.8638 4.04217L84.8638 4.04226L84.8636 4.04308C84.8197 4.19949 84.775 4.35887 84.73 4.52312C84.277 6.18012 83.151 7.28712 81.542 7.84812C80.6508 8.15863 79.6981 8.10293 78.7216 8.04585C78.3176 8.02222 77.9095 7.99837 77.5 8.00012V0.000122078H71.5V21.9811L77.5 22.0001V13.0001ZM61.5645 0.000122078H67.5005V22.0001H61.5065V14.9451C61.1527 15.0269 60.8084 15.1152 60.4699 15.202C59.7532 15.3858 59.0621 15.563 58.3605 15.6581C55.6395 16.0261 53.0485 15.6911 50.8295 13.8141C49.1135 12.3621 48.1085 10.4151 47.8045 8.20612C47.598 6.70806 47.5807 4.741 47.5632 2.76498V2.76495C47.555 1.83116 47.5467 0.895366 47.5185 0.00612208L53.5005 0.000122078V1.00012V6.00012C53.5005 8.35512 55.5755 10.2131 57.8345 10.2461C59.2295 10.2661 60.0435 9.92612 61.4935 9.00612L61.5645 0.000122078ZM7.5 22.0001H13.5V6.00012H20.5V0.000122078H0.5V6.00012H7.5V22.0001Z" fill="#191919"/>
</svg>
