<svg width="35" height="34" viewBox="0 0 35 34" fill="none" xmlns="http://www.w3.org/2000/svg">
<rect x="0.5" width="34" height="34" fill="#FFF343"/>
<path d="M7.97575 23.5287L10.7714 26.3735L17.2947 19.7521L24.0141 26.5206L26.8589 23.7249L20.1885 17.0055L21.4637 15.7793V13.1308L22.2485 12.4441V14.5041L23.2784 15.3379L26.3684 12.2479L27.3493 13.0327C27.9379 10.8746 24.5537 5.92083 21.7089 8.66747L18.4228 11.9046L19.1094 12.6893L17.4418 14.3079L15.8233 12.7384L16.6571 11.9536L13.0766 8.47128C10.4772 6.31321 7.68147 9.69745 7.58337 12.9836L8.56432 12.1498L11.5562 15.3869L12.6352 14.5041V12.4931L13.3219 12.9836V15.5831L14.6462 16.9074L7.97575 23.5287Z" fill="black"/>
</svg>
