<svg width="35" height="34" viewBox="0 0 35 34" fill="none" xmlns="http://www.w3.org/2000/svg">
<g id="Sarovbiznesbank">
<rect id="Fill" x="0.5" width="34" height="34" fill="#00529C"/>
<g id="Logo">
<path d="M5.84951 14.9834H30.25V13.4584H10.3305C8.47661 13.4584 6.6275 14.36 5.84951 14.9834Z" fill="white"/>
<path d="M30.2487 15.2366H5.67521C5.47514 15.3982 4.75 15.9927 4.75 16.7323H30.2487V15.2366Z" fill="white"/>
<path d="M14.5813 18.539H5.67521C5.47514 18.3792 4.75 17.7934 4.75 17.0634H14.5813V18.539Z" fill="white"/>
<path d="M16.0381 18.539H22.3918C22.3918 17.6802 20.8441 17.0634 18.9906 17.0634H16.0381V18.539Z" fill="white"/>
<path d="M29.9338 18.539H23.5814V17.0634H26.5313C28.3865 17.0634 29.9338 17.6802 29.9338 18.539Z" fill="white"/>
<path d="M29.9338 18.8126H23.5814V20.3734H26.5313C28.3865 20.3734 29.9338 19.7207 29.9338 18.8126Z" fill="white"/>
<path d="M22.3918 18.8126H16.0381V20.3734H18.9906C20.8441 20.3734 22.3918 19.7207 22.3918 18.8126Z" fill="white"/>
<path d="M5.84951 18.8126H14.5813V20.3734H10.3305C8.47661 20.3734 6.6275 19.4508 5.84951 18.8126Z" fill="white"/>
</g>
</g>
</svg>
