<svg width="35" height="34" viewBox="0 0 35 34" fill="none" xmlns="http://www.w3.org/2000/svg">
<rect x="0.5" width="34" height="34" fill="#24A14D"/>
<path d="M17.4999 8.83009C17.637 8.83009 17.7729 8.83499 17.9087 8.84167L17.9087 8.84018C19.4609 8.91704 20.8996 9.42901 22.1062 10.2559L24.1724 8.73301C22.3472 7.25523 20.084 6.42813 17.7405 6.37806C16.3547 6.34472 14.9747 6.5838 13.6793 7.08276C12.2936 7.61654 11.0356 8.4358 9.98704 9.48734L9.98789 9.48819C8.14659 11.329 6.97786 13.8426 6.88203 16.6284C6.82989 18.0583 7.06807 19.4844 7.5828 20.8206C8.1166 22.2063 8.9359 23.4642 9.9875 24.5127C11.8285 26.3533 14.3415 27.5218 17.127 27.6179C18.5573 27.6702 19.9839 27.4321 21.3205 26.9172C22.7062 26.3835 23.9642 25.5642 25.0127 24.5127C26.936 22.5907 28.125 19.9342 28.125 17.0002C28.125 16.3501 28.0666 15.7142 27.9549 15.0966L25.6673 16.782C25.6695 16.8546 25.6704 16.9268 25.6704 17.0002C25.6704 19.399 24.6311 21.56 22.9785 23.0561L22.9791 23.0568C22.2871 23.6848 21.4914 24.1897 20.6263 24.5486C19.6353 24.9597 18.5728 25.171 17.4999 25.1703C17.3628 25.1703 17.2274 25.1672 17.0916 25.1601C15.0014 25.0567 13.1151 24.1648 11.7255 22.7752L11.726 22.7747C10.9658 22.0176 10.3628 21.1176 9.95153 20.1266C9.5403 19.1356 9.329 18.0731 9.32977 17.0002C9.32977 17.0002 9.32977 17.0002 9.32977 17.0002L9.33065 17.0002C9.3302 14.601 10.3696 12.4405 12.0217 10.9443L12.0207 10.9437C12.7127 10.3157 13.5084 9.81075 14.3735 9.45188C15.3645 9.04076 16.427 8.82946 17.4999 8.83009Z" fill="white"/>
<path d="M27.1814 12.6173C26.8406 11.8659 26.4132 11.1569 25.9078 10.5048L17.4999 16.7014L13.4556 14.1655V17.2157L17.5003 19.7512L27.1814 12.6173Z" fill="white"/>
</svg>
