<svg width="35" height="34" viewBox="0 0 35 34" fill="none" xmlns="http://www.w3.org/2000/svg">
<g id="Severgazbank">
<rect id="Fill" x="0.5" width="34" height="34" fill="#1893CE"/>
<g id="Logo">
<path d="M22.4772 27.3495C22.9233 25.5787 23.1666 23.5718 23.1666 21.4074C23.1666 15.8982 21.3012 10.743 17.8541 6.375C14.4071 10.7824 12.5416 15.8588 12.5416 21.4074C12.5416 23.5718 12.785 25.6181 13.231 27.3495V26.9167C13.231 21.4861 14.7721 16.3704 17.8541 11.8843C20.9362 16.3704 22.4772 21.5255 22.4772 26.9167V27.3495Z" fill="white"/>
<path d="M20.8957 27.625C21.1795 26.4838 21.3417 25.1852 21.3417 23.7685C21.3417 19.6759 20.1657 17.669 17.8542 14.5602C15.5021 17.669 14.3665 19.6759 14.3665 23.7685C14.3665 25.1852 14.5693 26.4838 14.8532 27.625V27.1528C14.8532 23.1389 15.7859 21.1319 17.8947 17.9051C19.9629 21.1319 20.8957 23.1389 20.8957 27.1528V27.625Z" fill="white"/>
</g>
</g>
</svg>
