<svg width="25" height="24" viewBox="0 0 25 24" fill="none" xmlns="http://www.w3.org/2000/svg">
<g id="Stroked/Bell">
<g id="Icon">
<path fill-rule="evenodd" clip-rule="evenodd" d="M10.5 3C10.5 3.0964 10.5068 3.1912 10.52 3.28396C7.61824 4.13808 5.5 6.82167 5.5 10V13.5858L3.79289 15.2929C3.60536 15.4804 3.5 15.7348 3.5 16V17C3.5 17.5523 3.94772 18 4.5 18H20.5C21.0523 18 21.5 17.5523 21.5 17V16C21.5 15.7348 21.3946 15.4804 21.2071 15.2929L19.5 13.5858V10C19.5 6.82167 17.3818 4.13808 14.48 3.28396C14.4932 3.1912 14.5 3.0964 14.5 3C14.5 1.89543 13.6046 1 12.5 1C11.3954 1 10.5 1.89543 10.5 3ZM12.5 5C9.73858 5 7.5 7.23858 7.5 10V14C7.5 14.2652 7.39464 14.5196 7.20711 14.7071L5.91421 16H19.0858L17.7929 14.7071C17.6054 14.5196 17.5 14.2652 17.5 14V10C17.5 7.23858 15.2614 5 12.5 5Z" fill="#191919"/>
<path d="M9.57806 20.2745C9.16904 20.6456 9.13829 21.2781 9.50939 21.6871C10.2592 22.5135 11.3536 23 12.5 23C13.652 23 14.7426 22.5088 15.4939 21.6725C15.863 21.2616 15.8291 20.6294 15.4183 20.2603C15.0075 19.8912 14.3752 19.925 14.0061 20.3359C13.6323 20.752 13.0817 21 12.5 21C11.9187 21 11.3619 20.7525 10.9906 20.3432C10.6195 19.9342 9.98709 19.9034 9.57806 20.2745Z" fill="#191919"/>
</g>
</g>
</svg>
