<svg width="25" height="24" viewBox="0 0 25 24" fill="none" xmlns="http://www.w3.org/2000/svg">
<g id="Stroked/Invite Man">
<g id="Icon">
<path fill-rule="evenodd" clip-rule="evenodd" d="M7.47014 13.7575C7.60409 14.2933 7.27833 14.8362 6.74254 14.9701C5.00019 15.4057 4.22956 16.2388 3.86824 16.8711C3.67918 17.202 3.58634 17.5065 3.54105 17.7216C3.5185 17.8288 3.50817 17.9117 3.50351 17.9618C3.50119 17.9867 3.50031 18.0031 3.50001 18.01C3.50001 18.0101 3.50002 18.0099 3.50001 18.01L3.5 20C3.5 20.5523 3.94772 21 4.5 21H13.5C14.0523 21 14.5 21.4477 14.5 22C14.5 22.5523 14.0523 23 13.5 23H4.5C2.84315 23 1.5 21.6568 1.5 20V18H2.5C1.5 18 1.5 17.9993 1.5 17.9987L1.5 17.9972L1.50002 17.9942L1.50007 17.9873L1.50035 17.97C1.50063 17.957 1.50111 17.941 1.50194 17.9221C1.50359 17.8845 1.50662 17.8356 1.51211 17.7765C1.52308 17.6586 1.544 17.4994 1.58395 17.3096C1.66366 16.931 1.82082 16.423 2.13176 15.8789C2.77044 14.7612 3.99981 13.5943 6.25746 13.0299C6.79326 12.8959 7.33619 13.2217 7.47014 13.7575Z" fill="#191919"/>
<path fill-rule="evenodd" clip-rule="evenodd" d="M7.47624 6.98058C6.85744 3.88662 9.22391 1 12.3791 1H12.6207C15.7759 1 18.1424 3.88662 17.5236 6.98058L17.0689 9.25437C16.6333 11.4323 14.721 13 12.4999 13C10.2789 13 8.36658 11.4323 7.931 9.25437L7.47624 6.98058ZM12.3791 3C10.486 3 9.06612 4.73197 9.4374 6.58835L9.89216 8.86214C10.1408 10.1052 11.2322 11 12.4999 11C13.7676 11 14.8591 10.1052 15.1077 8.86214L15.5625 6.58835C15.9337 4.73197 14.5138 3 12.6207 3H12.3791Z" fill="#191919"/>
<path fill-rule="evenodd" clip-rule="evenodd" d="M16.5891 16.7283C16.3245 17.446 16.5148 19.3035 19.9647 21.1146C20.4537 21.3713 20.642 21.9758 20.3853 22.4648C20.1286 22.9538 19.524 23.1421 19.035 22.8854C15.2438 20.8951 13.9226 18.1794 14.7126 16.0365C15.0918 15.0078 15.9519 14.2509 17.0232 14.0513C18.1097 13.849 19.2623 14.2425 20.2101 15.1984L20.9142 15.9085L19.4939 17.3167L18.7898 16.6066C18.2262 16.0381 17.7178 15.9564 17.3894 16.0175C17.046 16.0815 16.7372 16.3267 16.5891 16.7283Z" fill="#191919"/>
<path fill-rule="evenodd" clip-rule="evenodd" d="M22.4109 16.7283C22.6755 17.446 22.4852 19.3035 19.0353 21.1146C18.5463 21.3713 18.358 21.9758 18.6147 22.4648C18.8714 22.9538 19.476 23.1421 19.965 22.8854C23.7562 20.8951 25.0774 18.1794 24.2874 16.0365C23.9082 15.0078 23.0481 14.2509 21.9768 14.0513C20.8903 13.849 19.7377 14.2425 18.7899 15.1984L18.0858 15.9085L19.5061 17.3167L20.2102 16.6066C20.7738 16.0381 21.2822 15.9564 21.6106 16.0175C21.954 16.0815 22.2628 16.3267 22.4109 16.7283Z" fill="#191919"/>
</g>
</g>
</svg>
