<svg width="25" height="24" viewBox="0 0 25 24" fill="none" xmlns="http://www.w3.org/2000/svg">
<g id="Stroked/Logout">
<path id="Icon" fill-rule="evenodd" clip-rule="evenodd" d="M7.5 4C6.94772 4 6.5 4.44772 6.5 5V19C6.5 19.5523 6.94772 20 7.5 20H17.5C18.0523 20 18.5 19.5523 18.5 19C18.5 18.4477 18.9477 18 19.5 18C20.0523 18 20.5 18.4477 20.5 19C20.5 20.6569 19.1569 22 17.5 22H7.5C5.84315 22 4.5 20.6569 4.5 19V5C4.5 3.34315 5.84315 2 7.5 2H17.5C19.1569 2 20.5 3.34315 20.5 5C20.5 5.55228 20.0523 6 19.5 6C18.9477 6 18.5 5.55228 18.5 5C18.5 4.44772 18.0523 4 17.5 4H7.5ZM17.7929 9.70711C17.4024 9.31658 17.4024 8.68342 17.7929 8.29289C18.1834 7.90237 18.8166 7.90237 19.2071 8.29289L22.2071 11.2929C22.5976 11.6834 22.5976 12.3166 22.2071 12.7071L19.2071 15.7071C18.8166 16.0976 18.1834 16.0976 17.7929 15.7071C17.4024 15.3166 17.4024 14.6834 17.7929 14.2929L19.0858 13H11.5C10.9477 13 10.5 12.5523 10.5 12C10.5 11.4477 10.9477 11 11.5 11H19.0858L17.7929 9.70711Z" fill="#191919"/>
</g>
</svg>
