<svg width="23" height="22" viewBox="0 0 23 22" fill="none" xmlns="http://www.w3.org/2000/svg">
<g id="Services/Document Paid">
<g id="Icon">
<path fill-rule="evenodd" clip-rule="evenodd" d="M6.54163 2.5H12.2083V6.04161C12.2083 7.60642 13.4768 8.87494 15.0416 8.87494H18.5833V13.125C15.8449 13.125 13.625 15.3449 13.625 18.0833C13.625 18.5756 13.6967 19.0511 13.8303 19.5H6.54163C5.36802 19.5 4.41663 18.5486 4.41663 17.375V4.625C4.41663 3.45139 5.36802 2.5 6.54163 2.5ZM7.24996 14.5417C7.24996 14.1505 7.56709 13.8333 7.95829 13.8333H12.2083C12.5995 13.8333 12.9166 14.1505 12.9166 14.5417C12.9166 14.9329 12.5995 15.25 12.2083 15.25H7.95829C7.56709 15.25 7.24996 14.9329 7.24996 14.5417ZM7.95829 10.2917C7.56709 10.2917 7.24996 10.6088 7.24996 11C7.24996 11.3912 7.56709 11.7083 7.95829 11.7083H9.37496C9.76616 11.7083 10.0833 11.3912 10.0833 11C10.0833 10.6088 9.76616 10.2917 9.37496 10.2917H7.95829Z" fill="white"/>
<path d="M18.55 7.45828C18.4774 7.05284 18.2879 6.67434 18.0009 6.37141L14.9619 3.16354C14.6081 2.79003 14.1325 2.55931 13.625 2.50997V6.04161C13.625 6.82401 14.2592 7.45828 15.0416 7.45828H18.55Z" fill="white"/>
<path d="M21.2614 17.1092C21.5058 16.8037 21.4563 16.3579 21.1508 16.1136C20.8453 15.8692 20.3996 15.9187 20.1552 16.2242L17.875 19.0744L17.0114 17.995C16.767 17.6895 16.3213 17.64 16.0158 17.8844C15.7103 18.1288 15.6608 18.5745 15.9052 18.88L17.3218 20.6508C17.4563 20.8189 17.6598 20.9167 17.875 20.9167C18.0901 20.9167 18.2937 20.8189 18.4281 20.6508L21.2614 17.1092Z" fill="white"/>
</g>
</g>
</svg>
