<svg width="25" height="24" viewBox="0 0 25 24" fill="none" xmlns="http://www.w3.org/2000/svg">
<g id="Common/Stroked/Gear">
<g id="Icon">
<path fill-rule="evenodd" clip-rule="evenodd" d="M12.5 16C10.2909 16 8.5 14.2092 8.5 12C8.5 9.79088 10.2909 8.00002 12.5 8.00002C14.7091 8.00002 16.5 9.79088 16.5 12C16.5 14.2092 14.7091 16 12.5 16ZM14.5 12C14.5 13.1046 13.6046 14 12.5 14C11.3954 14 10.5 13.1046 10.5 12C10.5 10.8954 11.3954 10 12.5 10C13.6046 10 14.5 10.8954 14.5 12Z" fill="#191919"/>
<path fill-rule="evenodd" clip-rule="evenodd" d="M22.6961 9.01944L20.8541 8.65103C20.5363 7.85706 20.1072 7.11142 19.578 6.43767L20.1793 4.66021C20.3321 4.20867 20.1449 3.71208 19.732 3.47374L16.2679 1.47374C15.8551 1.2354 15.3315 1.32157 15.0168 1.67963L13.7781 3.08909C12.93 2.9677 12.0697 2.96886 11.2233 3.09069L9.9832 1.67963C9.66853 1.32157 9.14487 1.2354 8.73205 1.47374L5.26795 3.47374C4.85513 3.71208 4.66793 4.20867 4.82068 4.66021L5.4224 6.43891C5.16028 6.77327 4.92083 7.12752 4.70577 7.50002C4.49071 7.87252 4.30364 8.25701 4.14514 8.65119L2.30388 9.01944C1.83646 9.11292 1.5 9.52334 1.5 10V14C1.5 14.4767 1.83646 14.8871 2.30388 14.9806L4.14593 15.349C4.46365 16.143 4.89281 16.8886 5.42197 17.5624L4.82068 19.3398C4.66793 19.7914 4.85513 20.288 5.26795 20.5263L8.73205 22.5263C9.14487 22.7646 9.66853 22.6785 9.9832 22.3204L11.2219 20.9109C12.07 21.0323 12.9303 21.0312 13.7767 20.9093L15.0168 22.3204C15.3315 22.6785 15.8551 22.7646 16.268 22.5263L19.7321 20.5263C20.1449 20.288 20.3321 19.7914 20.1793 19.3398L19.5776 17.5611C19.8397 17.2268 20.0792 16.8725 20.2942 16.5C20.5093 16.1275 20.6964 15.743 20.8549 15.3489L22.6961 14.9806C23.1635 14.8871 23.5 14.4767 23.5 14V10C23.5 9.52334 23.1635 9.11292 22.6961 9.01944ZM19.9103 10.5019L21.5 10.8198V13.1802L19.912 13.4978C19.5581 13.5686 19.2698 13.8246 19.1576 14.1677C19.0073 14.6275 18.8085 15.0733 18.5622 15.5C18.3158 15.9267 18.0291 16.3218 17.7061 16.6819C17.465 16.9505 17.3875 17.3282 17.5031 17.6701L18.0221 19.2041L15.9779 20.3843L14.9077 19.1666C14.6691 18.8951 14.3027 18.7735 13.9492 18.8484C12.9935 19.051 12.0057 19.053 11.0493 18.8502C10.6957 18.7753 10.3293 18.8969 10.0907 19.1684L9.02208 20.3843L6.97792 19.2041L7.49667 17.6707C7.61247 17.3284 7.53457 16.9502 7.29289 16.6815C6.63908 15.9546 6.14687 15.0981 5.84451 14.1692C5.73265 13.8256 5.4441 13.569 5.08973 13.4982L3.5 13.1802L3.5 10.8198L5.08798 10.5022C5.44191 10.4314 5.73023 10.1754 5.84237 9.83234C5.99265 9.37258 6.19146 8.92673 6.43782 8.50002C6.68418 8.07331 6.9709 7.67821 7.29392 7.31818C7.53496 7.04953 7.61253 6.67182 7.49686 6.32991L6.97792 4.79589L9.02208 3.61569L10.0923 4.83347C10.3309 5.10492 10.6973 5.22654 11.0508 5.1516C12.0065 4.94901 12.9943 4.94702 13.9507 5.14979C14.3043 5.22474 14.6707 5.10312 14.9093 4.83167L15.9779 3.61569L18.0221 4.79589L17.5033 6.32934C17.3875 6.67167 17.4654 7.04985 17.7071 7.31853C18.3609 8.04542 18.8531 8.90194 19.1555 9.83082C19.2673 10.1745 19.5559 10.431 19.9103 10.5019Z" fill="#191919"/>
</g>
</g>
</svg>
