<svg width="31" height="30" viewBox="0 0 31 30" fill="none" xmlns="http://www.w3.org/2000/svg">
<g id="Filled/Chat">
<path id="Icon" fill-rule="evenodd" clip-rule="evenodd" d="M15.5 25C22.6797 25 28.5 20.0751 28.5 14C28.5 7.92487 22.6797 3 15.5 3C8.3203 3 2.5 7.92487 2.5 14C2.5 17.1832 4.09798 20.0507 6.65219 22.0593C6.38928 23.566 5.59405 24.8356 4.49366 25.8557C3.97712 26.3345 4.24933 27.3403 4.95354 27.3258C7.92778 27.2644 10.6069 26.6789 13.1349 24.8184C13.9019 24.9377 14.6923 25 15.5 25ZM9.5 12C9.5 11.4477 9.94772 11 10.5 11H20.5C21.0523 11 21.5 11.4477 21.5 12C21.5 12.5523 21.0523 13 20.5 13H10.5C9.94771 13 9.5 12.5523 9.5 12ZM10.562 15.4229C10.0097 15.4229 9.56201 15.8706 9.56201 16.4229C9.56201 16.9751 10.0097 17.4229 10.562 17.4229H16.562C17.1143 17.4229 17.562 16.9751 17.562 16.4229C17.562 15.8706 17.1143 15.4229 16.562 15.4229H10.562Z" fill="#C8C8C8"/>
</g>
</svg>
