<svg width="31" height="30" viewBox="0 0 31 30" fill="none" xmlns="http://www.w3.org/2000/svg">
<g id="Filled/History">
<path id="Icon" fill-rule="evenodd" clip-rule="evenodd" d="M15.5 27C22.1274 27 27.5 21.6274 27.5 15C27.5 8.37258 22.1274 3 15.5 3C8.87258 3 3.5 8.37258 3.5 15C3.5 21.6274 8.87258 27 15.5 27ZM16.5 10C16.5 9.44772 16.0523 9 15.5 9C14.9477 9 14.5 9.44772 14.5 10V15C14.5 15.2652 14.6054 15.5196 14.7929 15.7071L19.2929 20.2071C19.6834 20.5976 20.3166 20.5976 20.7071 20.2071C21.0976 19.8166 21.0976 19.1834 20.7071 18.7929L16.5 14.5858V10Z" fill="#835DE1"/>
</g>
</svg>
