<svg width="31" height="30" viewBox="0 0 31 30" fill="none" xmlns="http://www.w3.org/2000/svg">
<g id="Filled/Payments">
<g id="Icon">
<path d="M14.5001 4C12.3252 4 10.2751 4.53409 8.47363 5.47826C10.4806 3.33749 13.3342 2 16.5001 2C22.5752 2 27.5001 6.92487 27.5001 13C27.5001 13.6534 27.4431 14.2935 27.3339 14.9156C26.3365 8.72679 20.9703 4 14.5001 4Z" fill="#C8C8C8"/>
<path d="M15.5 16C16.0523 16 16.5 15.5523 16.5 15C16.5 14.4477 16.0523 14 15.5 14H13.5V16H15.5Z" fill="#C8C8C8"/>
<path fill-rule="evenodd" clip-rule="evenodd" d="M14.5 28C20.5751 28 25.5 23.0751 25.5 17C25.5 10.9249 20.5751 6 14.5 6C8.42487 6 3.5 10.9249 3.5 17C3.5 23.0751 8.42487 28 14.5 28ZM11.5 13C11.5 12.4477 11.9477 12 12.5 12H15.5C17.1569 12 18.5 13.3431 18.5 15C18.5 16.6569 17.1569 18 15.5 18H13.5V19H15.5C16.0523 19 16.5 19.4477 16.5 20C16.5 20.5523 16.0523 21 15.5 21H13.5V21.5C13.5 22.0523 13.0523 22.5 12.5 22.5C11.9477 22.5 11.5 22.0523 11.5 21.5V21C10.9477 21 10.5 20.5523 10.5 20C10.5 19.4477 10.9477 19 11.5 19V18C10.9477 18 10.5 17.5523 10.5 17C10.5 16.4477 10.9477 16 11.5 16V13Z" fill="#C8C8C8"/>
</g>
</g>
</svg>
